<?xml version="1.0" encoding="UTF-8"?>
<!DOCTYPE svg PUBLIC "-//W3C//DTD SVG 1.1//EN" "http://www.w3.org/Graphics/SVG/1.1/DTD/svg11.dtd">
<svg version="1.2" width="104.7mm" height="16.14mm" viewBox="5283 14067 10434 1565" preserveAspectRatio="xMidYMid meet" fill-rule="evenodd" stroke-width="28.222" stroke-linejoin="round" xmlns="http://www.w3.org/2000/svg" xmlns:ooo="http://xml.openoffice.org/svg/export" xmlns:xlink="http://www.w3.org/1999/xlink" xmlns:presentation="http://sun.com/xmlns/staroffice/presentation" xmlns:smil="http://www.w3.org/2001/SMIL20/" xmlns:anim="urn:oasis:names:tc:opendocument:xmlns:animation:1.0" xmlns:svg="urn:oasis:names:tc:opendocument:xmlns:svg-compatible:1.0" xml:space="preserve">
 <defs class="ClipPathGroup">
  <clipPath id="presentation_clip_path" clipPathUnits="userSpaceOnUse">
   <rect x="0" y="0" width="21000" height="29700"/>
  </clipPath>
  <clipPath id="presentation_clip_path_shrink" clipPathUnits="userSpaceOnUse">
   <rect x="21" y="29" width="20958" height="29641"/>
  </clipPath>
 </defs>
 <defs class="TextShapeIndex">
  <g ooo:slide="id1" ooo:id-list="id3"/>
 </defs>
 <defs class="EmbeddedBulletChars">
  <g id="bullet-char-template-57356" transform="scale(0.00048828125,-0.00048828125)">
   <path d="M 580,1141 L 1163,571 580,0 -4,571 580,1141 Z"/>
  </g>
  <g id="bullet-char-template-57354" transform="scale(0.00048828125,-0.00048828125)">
   <path d="M 8,1128 L 1137,1128 1137,0 8,0 8,1128 Z"/>
  </g>
  <g id="bullet-char-template-10146" transform="scale(0.00048828125,-0.00048828125)">
   <path d="M 174,0 L 602,739 174,1481 1456,739 174,0 Z M 1358,739 L 309,1346 659,739 1358,739 Z"/>
  </g>
  <g id="bullet-char-template-10132" transform="scale(0.00048828125,-0.00048828125)">
   <path d="M 2015,739 L 1276,0 717,0 1260,543 174,543 174,936 1260,936 717,1481 1274,1481 2015,739 Z"/>
  </g>
  <g id="bullet-char-template-10007" transform="scale(0.00048828125,-0.00048828125)">
   <path d="M 0,-2 C -7,14 -16,27 -25,37 L 356,567 C 262,823 215,952 215,954 215,979 228,992 255,992 264,992 276,990 289,987 310,991 331,999 354,1012 L 381,999 492,748 772,1049 836,1024 860,1049 C 881,1039 901,1025 922,1006 886,937 835,863 770,784 769,783 710,716 594,584 L 774,223 C 774,196 753,168 711,139 L 727,119 C 717,90 699,76 672,76 641,76 570,178 457,381 L 164,-76 C 142,-110 111,-127 72,-127 30,-127 9,-110 8,-76 1,-67 -2,-52 -2,-32 -2,-23 -1,-13 0,-2 Z"/>
  </g>
  <g id="bullet-char-template-10004" transform="scale(0.00048828125,-0.00048828125)">
   <path d="M 285,-33 C 182,-33 111,30 74,156 52,228 41,333 41,471 41,549 55,616 82,672 116,743 169,778 240,778 293,778 328,747 346,684 L 369,508 C 377,444 397,411 428,410 L 1163,1116 C 1174,1127 1196,1133 1229,1133 1271,1133 1292,1118 1292,1087 L 1292,965 C 1292,929 1282,901 1262,881 L 442,47 C 390,-6 338,-33 285,-33 Z"/>
  </g>
  <g id="bullet-char-template-9679" transform="scale(0.00048828125,-0.00048828125)">
   <path d="M 813,0 C 632,0 489,54 383,161 276,268 223,411 223,592 223,773 276,916 383,1023 489,1130 632,1184 813,1184 992,1184 1136,1130 1245,1023 1353,916 1407,772 1407,592 1407,412 1353,268 1245,161 1136,54 992,0 813,0 Z"/>
  </g>
  <g id="bullet-char-template-8226" transform="scale(0.00048828125,-0.00048828125)">
   <path d="M 346,457 C 273,457 209,483 155,535 101,586 74,649 74,723 74,796 101,859 155,911 209,963 273,989 346,989 419,989 480,963 531,910 582,859 608,796 608,723 608,648 583,586 532,535 482,483 420,457 346,457 Z"/>
  </g>
  <g id="bullet-char-template-8211" transform="scale(0.00048828125,-0.00048828125)">
   <path d="M -4,459 L 1135,459 1135,606 -4,606 -4,459 Z"/>
  </g>
  <g id="bullet-char-template-61548" transform="scale(0.00048828125,-0.00048828125)">
   <path d="M 173,740 C 173,903 231,1043 346,1159 462,1274 601,1332 765,1332 928,1332 1067,1274 1183,1159 1299,1043 1357,903 1357,740 1357,577 1299,437 1183,322 1067,206 928,148 765,148 601,148 462,206 346,322 231,437 173,577 173,740 Z"/>
  </g>
 </defs>
 <g>
  <g id="id2" class="Master_Slide">
   <g id="bg-id2" class="Background"/>
   <g id="bo-id2" class="BackgroundObjects"/>
  </g>
 </g>
 <g class="SlideGroup">
  <g>
   <g id="container-id1">
   <g id="id1" class="Slide">
     <g class="Page">
      <g class="Graphic">
       <g id="id3">
        <rect class="BoundingBox" stroke="none" fill="none" x="5283" y="14067" width="10434" height="1565"/>
        <path fill="rgb(0,0,0)" stroke="none" d="M 6156,14083 L 5305,15584 6083,15584 6203,15367 5672,15367 6279,14300 6156,14083 Z M 6178,14555 L 6640,15367 6248,15367 6124,15584 7007,15584 6301,14338 6178,14555 Z "/>
        <path fill="none" stroke="rgb(0,0,0)" d="M 6156,14083 L 5305,15584 6083,15584 6203,15367 5672,15367 6279,14300 6156,14083 Z "/>
        <path fill="none" stroke="rgb(0,0,0)" d="M 6178,14555 L 6640,15367 6248,15367 6124,15584 7007,15584 6301,14338 6178,14555 Z "/>
        <path fill="rgb(0,0,0)" stroke="none" d="M 7440,15568 L 7440,14736 7608,14736 7608,15428 8028,15428 8028,15568 7440,15568 Z M 8265,15147 L 8120,15122 8139,15068 8167,15023 8205,14988 8237,14969 8278,14956 8325,14950 8382,14947 8446,14950 8499,14959 8541,14972 8585,15001 8613,15036 8626,15071 8632,15119 8635,15182 8632,15367 8632,15418 8635,15456 8642,15488 8651,15527 8670,15568 8512,15568 8509,15558 8503,15549 8499,15536 8496,15520 8493,15514 8493,15507 8490,15504 8449,15539 8405,15565 8354,15581 8303,15584 8246,15578 8199,15562 8158,15533 8126,15495 8110,15453 8104,15405 8107,15370 8114,15342 8129,15313 8158,15278 8196,15249 8250,15230 8322,15211 8389,15198 8443,15186 8477,15173 8477,15157 8474,15128 8468,15106 8455,15090 8436,15080 8408,15074 8370,15071 8332,15074 8303,15087 8281,15112 8265,15147 Z M 8477,15278 L 8439,15291 8382,15303 8341,15313 8294,15329 8272,15354 8262,15386 8269,15418 8288,15447 8316,15463 8351,15469 8392,15463 8433,15441 8458,15418 8471,15390 8477,15358 8477,15310 8477,15278 Z M 8737,15396 L 8898,15374 8907,15402 8920,15425 8939,15444 8961,15456 8993,15466 9028,15469 9066,15466 9094,15456 9119,15444 9129,15434 9141,15415 9141,15390 9129,15370 9110,15361 9075,15351 8986,15329 8917,15310 8866,15291 8832,15272 8800,15246 8775,15214 8762,15176 8759,15135 8765,15084 8787,15039 8822,15001 8857,14978 8901,14959 8952,14950 9012,14947 9072,14950 9122,14956 9164,14969 9198,14988 9233,15020 9262,15058 9281,15109 9129,15138 9116,15106 9094,15080 9059,15068 9015,15061 8977,15064 8945,15071 8923,15080 8917,15087 8911,15096 8907,15103 8907,15122 8911,15128 8917,15138 8923,15144 8939,15154 8971,15163 9015,15176 9072,15189 9148,15208 9208,15233 9252,15259 9281,15291 9296,15332 9303,15380 9293,15434 9271,15482 9233,15523 9192,15549 9145,15568 9091,15581 9028,15584 8968,15581 8917,15571 8869,15555 8832,15533 8790,15495 8759,15450 8737,15396 Z M 9790,15377 L 9951,15402 9926,15456 9894,15504 9853,15539 9806,15565 9752,15578 9689,15584 9616,15578 9553,15558 9499,15523 9455,15479 9429,15434 9410,15386 9398,15329 9394,15268 9401,15198 9413,15135 9439,15080 9474,15033 9515,14994 9562,14969 9613,14953 9673,14947 9736,14953 9793,14969 9840,14998 9885,15036 9916,15087 9942,15151 9954,15227 9957,15313 9559,15313 9562,15358 9575,15393 9597,15425 9625,15447 9654,15460 9689,15463 9723,15460 9752,15444 9774,15415 9790,15377 Z M 9799,15214 L 9796,15170 9783,15135 9765,15106 9739,15087 9714,15074 9682,15071 9651,15074 9622,15087 9597,15109 9578,15138 9565,15173 9562,15214 9799,15214 Z M 10242,15568 L 10084,15568 10084,14959 10229,14959 10229,15045 10255,15010 10277,14982 10299,14966 10331,14953 10369,14947 10403,14950 10438,14959 10473,14978 10426,15119 10384,15096 10350,15090 10318,15096 10293,15109 10271,15135 10255,15176 10248,15208 10245,15252 10242,15310 10242,15380 10242,15568 Z M 10543,14727 L 10852,14727 10916,14730 10969,14736 11011,14746 11055,14762 11096,14787 11134,14822 11166,14861 11194,14908 11216,14959 11229,15017 11238,15080 11241,15157 11238,15224 11229,15281 11216,15335 11191,15393 11162,15444 11128,15485 11096,15511 11055,15533 11007,15552 10966,15562 10919,15565 10859,15568 10543,15568 10543,14727 Z M 10713,14870 L 10713,15428 10837,15428 10900,15425 10941,15418 10976,15405 11007,15383 11033,15351 11052,15303 11061,15262 11064,15208 11068,15147 11064,15087 11061,15039 11052,15001 11030,14953 11004,14918 10969,14896 10925,14880 10894,14873 10849,14870 10789,14870 10713,14870 Z M 11346,15256 L 11355,15176 11387,15100 11415,15055 11453,15017 11498,14985 11548,14962 11602,14950 11659,14947 11725,14953 11782,14969 11836,14998 11883,15036 11921,15084 11947,15138 11963,15198 11969,15262 11963,15329 11947,15390 11918,15444 11880,15492 11833,15533 11782,15562 11722,15578 11659,15584 11580,15574 11501,15546 11453,15517 11415,15479 11387,15434 11365,15383 11349,15323 11346,15256 Z M 11510,15265 L 11517,15323 11529,15367 11555,15405 11586,15431 11621,15447 11659,15453 11697,15447 11732,15431 11763,15405 11785,15367 11801,15323 11804,15265 11801,15208 11785,15163 11763,15125 11732,15100 11697,15084 11659,15077 11621,15084 11586,15100 11555,15125 11529,15163 11517,15208 11510,15265 Z M 12624,15141 L 12465,15170 12453,15128 12427,15096 12408,15084 12383,15077 12355,15074 12320,15077 12288,15093 12260,15115 12241,15151 12228,15195 12225,15256 12228,15319 12241,15370 12260,15409 12288,15434 12320,15447 12358,15453 12386,15450 12412,15441 12434,15428 12450,15405 12462,15374 12472,15335 12630,15364 12608,15431 12579,15485 12538,15530 12484,15558 12424,15578 12352,15584 12288,15578 12231,15562 12184,15536 12140,15501 12105,15453 12080,15399 12067,15335 12061,15265 12067,15195 12080,15131 12105,15077 12140,15029 12184,14994 12235,14969 12291,14953 12355,14947 12421,14953 12481,14969 12529,14994 12570,15033 12601,15080 12624,15141 Z M 12737,15568 L 12737,14727 12899,14727 12899,15173 13085,14959 13281,14959 13076,15182 13297,15568 13123,15568 12971,15294 12899,15374 12899,15568 12737,15568 Z M 13721,15568 L 13721,14736 13889,14736 13889,15428 14309,15428 14309,15568 13721,15568 Z M 14705,14959 L 14705,15087 14594,15087 14594,15405 14597,15421 14603,15434 14610,15444 14626,15447 14638,15450 14667,15447 14701,15434 14717,15558 14657,15578 14591,15584 14550,15581 14512,15568 14483,15552 14461,15533 14448,15504 14439,15469 14436,15444 14433,15405 14433,15087 14360,15087 14360,14959 14433,14959 14433,14838 14594,14743 14594,14959 14705,14959 Z M 15369,15568 L 15220,15568 15220,15479 15195,15511 15166,15536 15135,15558 15084,15578 15034,15584 14983,15578 14935,15562 14894,15536 14853,15498 14822,15453 14796,15399 14784,15335 14777,15262 14780,15189 14796,15125 14818,15071 14850,15026 14891,14991 14932,14966 14980,14953 15034,14947 15084,14953 15128,14969 15173,14994 15211,15033 15211,14727 15369,14727 15369,15568 Z M 14942,15252 L 14945,15310 14954,15358 14970,15393 14999,15428 15034,15450 15078,15456 15113,15450 15144,15434 15173,15409 15195,15374 15207,15326 15211,15268 15207,15205 15195,15154 15173,15115 15144,15090 15113,15077 15078,15071 15043,15074 15011,15090 14983,15115 14961,15151 14945,15198 14942,15252 Z M 15527,15568 L 15527,15409 15685,15409 15685,15568 15527,15568 Z "/>
        <path fill="none" stroke="rgb(0,0,0)" d="M 7440,15568 L 7440,14736 7608,14736 7608,15428 8028,15428 8028,15568 7440,15568 Z "/>
        <path fill="none" stroke="rgb(0,0,0)" d="M 8265,15147 L 8120,15122 8139,15068 8167,15023 8205,14988 8237,14969 8278,14956 8325,14950 8382,14947 8446,14950 8499,14959 8541,14972 8585,15001 8613,15036 8626,15071 8632,15119 8635,15182 8632,15367 8632,15418 8635,15456 8642,15488 8651,15527 8670,15568 8512,15568 8509,15558 8503,15549 8499,15536 8496,15520 8493,15514 8493,15507 8490,15504 8449,15539 8405,15565 8354,15581 8303,15584 8246,15578 8199,15562 8158,15533 8126,15495 8110,15453 8104,15405 8107,15370 8114,15342 8129,15313 8158,15278 8196,15249 8250,15230 8322,15211 8389,15198 8443,15186 8477,15173 8477,15157 8474,15128 8468,15106 8455,15090 8436,15080 8408,15074 8370,15071 8332,15074 8303,15087 8281,15112 8265,15147 Z "/>
        <path fill="none" stroke="rgb(0,0,0)" d="M 8477,15278 L 8439,15291 8382,15303 8341,15313 8294,15329 8272,15354 8262,15386 8269,15418 8288,15447 8316,15463 8351,15469 8392,15463 8433,15441 8458,15418 8471,15390 8477,15358 8477,15310 8477,15278 Z "/>
        <path fill="none" stroke="rgb(0,0,0)" d="M 8737,15396 L 8898,15374 8907,15402 8920,15425 8939,15444 8961,15456 8993,15466 9028,15469 9066,15466 9094,15456 9119,15444 9129,15434 9141,15415 9141,15390 9129,15370 9110,15361 9075,15351 8986,15329 8917,15310 8866,15291 8832,15272 8800,15246 8775,15214 8762,15176 8759,15135 8765,15084 8787,15039 8822,15001 8857,14978 8901,14959 8952,14950 9012,14947 9072,14950 9122,14956 9164,14969 9198,14988 9233,15020 9262,15058 9281,15109 9129,15138 9116,15106 9094,15080 9059,15068 9015,15061 8977,15064 8945,15071 8923,15080 8917,15087 8911,15096 8907,15103 8907,15122 8911,15128 8917,15138 8923,15144 8939,15154 8971,15163 9015,15176 9072,15189 9148,15208 9208,15233 9252,15259 9281,15291 9296,15332 9303,15380 9293,15434 9271,15482 9233,15523 9192,15549 9145,15568 9091,15581 9028,15584 8968,15581 8917,15571 8869,15555 8832,15533 8790,15495 8759,15450 8737,15396 Z "/>
        <path fill="none" stroke="rgb(0,0,0)" d="M 9790,15377 L 9951,15402 9926,15456 9894,15504 9853,15539 9806,15565 9752,15578 9689,15584 9616,15578 9553,15558 9499,15523 9455,15479 9429,15434 9410,15386 9398,15329 9394,15268 9401,15198 9413,15135 9439,15080 9474,15033 9515,14994 9562,14969 9613,14953 9673,14947 9736,14953 9793,14969 9840,14998 9885,15036 9916,15087 9942,15151 9954,15227 9957,15313 9559,15313 9562,15358 9575,15393 9597,15425 9625,15447 9654,15460 9689,15463 9723,15460 9752,15444 9774,15415 9790,15377 Z "/>
        <path fill="none" stroke="rgb(0,0,0)" d="M 9799,15214 L 9796,15170 9783,15135 9765,15106 9739,15087 9714,15074 9682,15071 9651,15074 9622,15087 9597,15109 9578,15138 9565,15173 9562,15214 9799,15214 Z "/>
        <path fill="none" stroke="rgb(0,0,0)" d="M 10242,15568 L 10084,15568 10084,14959 10229,14959 10229,15045 10255,15010 10277,14982 10299,14966 10331,14953 10369,14947 10403,14950 10438,14959 10473,14978 10426,15119 10384,15096 10350,15090 10318,15096 10293,15109 10271,15135 10255,15176 10248,15208 10245,15252 10242,15310 10242,15380 10242,15568 Z "/>
        <path fill="none" stroke="rgb(0,0,0)" d="M 10543,14727 L 10852,14727 10916,14730 10969,14736 11011,14746 11055,14762 11096,14787 11134,14822 11166,14861 11194,14908 11216,14959 11229,15017 11238,15080 11241,15157 11238,15224 11229,15281 11216,15335 11191,15393 11162,15444 11128,15485 11096,15511 11055,15533 11007,15552 10966,15562 10919,15565 10859,15568 10543,15568 10543,14727 Z "/>
        <path fill="none" stroke="rgb(0,0,0)" d="M 10713,14870 L 10713,15428 10837,15428 10900,15425 10941,15418 10976,15405 11007,15383 11033,15351 11052,15303 11061,15262 11064,15208 11068,15147 11064,15087 11061,15039 11052,15001 11030,14953 11004,14918 10969,14896 10925,14880 10894,14873 10849,14870 10789,14870 10713,14870 Z "/>
        <path fill="none" stroke="rgb(0,0,0)" d="M 11346,15256 L 11355,15176 11387,15100 11415,15055 11453,15017 11498,14985 11548,14962 11602,14950 11659,14947 11725,14953 11782,14969 11836,14998 11883,15036 11921,15084 11947,15138 11963,15198 11969,15262 11963,15329 11947,15390 11918,15444 11880,15492 11833,15533 11782,15562 11722,15578 11659,15584 11580,15574 11501,15546 11453,15517 11415,15479 11387,15434 11365,15383 11349,15323 11346,15256 Z "/>
        <path fill="none" stroke="rgb(0,0,0)" d="M 11510,15265 L 11517,15323 11529,15367 11555,15405 11586,15431 11621,15447 11659,15453 11697,15447 11732,15431 11763,15405 11785,15367 11801,15323 11804,15265 11801,15208 11785,15163 11763,15125 11732,15100 11697,15084 11659,15077 11621,15084 11586,15100 11555,15125 11529,15163 11517,15208 11510,15265 Z "/>
        <path fill="none" stroke="rgb(0,0,0)" d="M 12624,15141 L 12465,15170 12453,15128 12427,15096 12408,15084 12383,15077 12355,15074 12320,15077 12288,15093 12260,15115 12241,15151 12228,15195 12225,15256 12228,15319 12241,15370 12260,15409 12288,15434 12320,15447 12358,15453 12386,15450 12412,15441 12434,15428 12450,15405 12462,15374 12472,15335 12630,15364 12608,15431 12579,15485 12538,15530 12484,15558 12424,15578 12352,15584 12288,15578 12231,15562 12184,15536 12140,15501 12105,15453 12080,15399 12067,15335 12061,15265 12067,15195 12080,15131 12105,15077 12140,15029 12184,14994 12235,14969 12291,14953 12355,14947 12421,14953 12481,14969 12529,14994 12570,15033 12601,15080 12624,15141 Z "/>
        <path fill="none" stroke="rgb(0,0,0)" d="M 12737,15568 L 12737,14727 12899,14727 12899,15173 13085,14959 13281,14959 13076,15182 13297,15568 13123,15568 12971,15294 12899,15374 12899,15568 12737,15568 Z "/>
        <path fill="none" stroke="rgb(0,0,0)" d="M 13721,15568 L 13721,14736 13889,14736 13889,15428 14309,15428 14309,15568 13721,15568 Z "/>
        <path fill="none" stroke="rgb(0,0,0)" d="M 14705,14959 L 14705,15087 14594,15087 14594,15405 14597,15421 14603,15434 14610,15444 14626,15447 14638,15450 14667,15447 14701,15434 14717,15558 14657,15578 14591,15584 14550,15581 14512,15568 14483,15552 14461,15533 14448,15504 14439,15469 14436,15444 14433,15405 14433,15087 14360,15087 14360,14959 14433,14959 14433,14838 14594,14743 14594,14959 14705,14959 Z "/>
        <path fill="none" stroke="rgb(0,0,0)" d="M 15369,15568 L 15220,15568 15220,15479 15195,15511 15166,15536 15135,15558 15084,15578 15034,15584 14983,15578 14935,15562 14894,15536 14853,15498 14822,15453 14796,15399 14784,15335 14777,15262 14780,15189 14796,15125 14818,15071 14850,15026 14891,14991 14932,14966 14980,14953 15034,14947 15084,14953 15128,14969 15173,14994 15211,15033 15211,14727 15369,14727 15369,15568 Z "/>
        <path fill="none" stroke="rgb(0,0,0)" d="M 14942,15252 L 14945,15310 14954,15358 14970,15393 14999,15428 15034,15450 15078,15456 15113,15450 15144,15434 15173,15409 15195,15374 15207,15326 15211,15268 15207,15205 15195,15154 15173,15115 15144,15090 15113,15077 15078,15071 15043,15074 15011,15090 14983,15115 14961,15151 14945,15198 14942,15252 Z "/>
        <path fill="none" stroke="rgb(0,0,0)" d="M 15527,15568 L 15527,15409 15685,15409 15685,15568 15527,15568 Z "/>
       </g>
      </g>
     </g>
    </g>
   </g>
  </g>
 </g>
</svg>
